<svg xmlns="http://www.w3.org/2000/svg" viewBox="0 0 100 100" enable-background="new 0 0 100 100"><path d="M25.856 82.795h.004l31.03-.044c1.38 0 2.5-1.124 2.5-2.502v-3.48c0-1.377-1.12-2.498-2.5-2.498l-31.03.043c-1.378.002-2.5 1.125-2.5 2.503v3.482c0 1.377 1.12 2.497 2.496 2.497zM12.434 89.78c.012 4.78.012 4.81.502 4.81h.01l1.733.05h.013s14.022 0 28.044-.007c7.012-.003 14.023-.008 19.28-.015 2.63-.003 4.822-.007 6.355-.012 2.91-.01 2.91-.01 2.91-.502l.048-1.748V59.623c0-1.378-1.122-2.5-2.5-2.5h-1.946c-1.378 0-2.5 1.122-2.5 2.5v26.62c0 .828-.673 1.5-1.5 1.5h-41.98c-.826 0-1.5-.672-1.5-1.5v-26.62c0-1.378-1.12-2.5-2.5-2.5H14.91c-1.378 0-2.5 1.12-2.5 2.5 0 3.814.002 12.432.01 20.095.002 3.83.007 7.425.014 10.06zM26.103 70.097L57.05 72.95c.08.008.156.01.232.01 1.3 0 2.364-.977 2.477-2.273l.298-3.447c.12-1.372-.9-2.59-2.27-2.717l-30.9-2.853c-1.404-.13-2.593.89-2.72 2.26l-.323 3.448c-.062.665.138 1.314.564 1.827.426.514 1.028.83 1.693.892zM74.357 39.288c.208 1.2 1.243 2.07 2.46 2.07.142 0 .286-.01.43-.037l3.443-.6c1.358-.237 2.27-1.535 2.035-2.893l-5.31-30.593c-.233-1.34-1.506-2.274-2.892-2.034l-3.442.6c-1.357.238-2.27 1.536-2.034 2.894l5.31 30.594zM33.948 36.923L60.68 52.725c.385.228.825.35 1.27.35.882 0 1.708-.47 2.155-1.228l1.777-3c.34-.575.437-1.247.27-1.894-.165-.646-.573-1.19-1.148-1.53L38.272 29.622c-1.146-.677-2.75-.26-3.426.88l-1.776 3c-.34.574-.437 1.247-.27 1.893.165.647.574 1.19 1.148 1.53zM66.17 44.46c.465.682 1.236 1.088 2.062 1.088.505 0 .993-.15 1.41-.438l2.845-1.95c1.136-.78 1.43-2.34.656-3.48l-17.47-25.677c-.75-1.1-2.37-1.41-3.47-.65l-2.898 1.994c-1.135.78-1.426 2.34-.65 3.48L66.17 44.46zM28.09 54.56l29.978 8.033c.212.057.43.086.648.086 1.128 0 2.12-.764 2.412-1.855l.9-3.37c.356-1.332-.438-2.705-1.77-3.062L30.282 46.36c-1.31-.35-2.712.466-3.06 1.77l-.9 3.37c-.355 1.33.44 2.704 1.77 3.06z"/></svg>