<svg xmlns="http://www.w3.org/2000/svg" width="21.119" height="31.683" viewBox="0 0 21.119 31.683"><path d="M16.215 25.67H1.73V3.893h14.484v4.69h1.727V2.31C17.94 1.034 16.91 0 15.638 0H2.307C1.03 0 0 1.034 0 2.308v27.07c0 1.272 1.03 2.305 2.307 2.305h13.33c1.273 0 2.305-1.033 2.305-2.306V19.212h-1.727v6.458zM14.117 1.444c.326 0 .59.264.59.59s-.264.59-.59.59-.59-.264-.59-.59.264-.59.59-.59zm-8.238.223h6.185v.676H5.88v-.676zm5.905 27.556h-5.63v-1.73h5.63v1.73zM7.768 18.296h1.555L7.768 21.99l4.537-3.694h8.814v-8.99H7.767v8.99z"/></svg>