<svg xmlns="http://www.w3.org/2000/svg" width="512" height="512" viewBox="0 0 512 512"><path d="M416 351.998h-32c-35.344 0-64-28.656-64-64v-20.563c14.156-16.828 24.313-36.734 30.625-57.766.656-3.548 4.063-5.298 6.344-7.735 12.25-12.25 14.655-32.922 5.468-47.64-1.25-2.235-3.5-4.173-3.375-6.94 0-18.765.094-37.562-.03-56.312-.5-22.64-6.97-46.188-22.845-62.953-12.813-13.547-30.406-21.61-48.563-25.063-22.938-4.375-46.938-4.156-69.656 1.625-19.69 4.97-38.19 16.5-49.626 33.594-10.125 14.86-14.563 32.906-15.313 50.688-.28 19.094-.062 38.234-.124 57.375.438 3.827-2.813 6.42-4.28 9.593-8.657 15.703-4.845 37.094 9.062 48.516 3.53 2.437 4.188 6.874 5.47 10.702 6.062 18.906 16.124 36.39 28.843 51.625v21.25c0 35.344-28.655 64-64 64H96s-58 16-96 96v32c0 17.688 14.313 32 32 32h448c17.688 0 32-14.313 32-32v-32c-38-80-96-96-96-96z"/></svg>