<svg xmlns="http://www.w3.org/2000/svg" width="50" height="50" viewBox="0 0 50 50"><g><path d="M43.912 9.943H6.095V34.88H43.91V9.942zm-2.834 22.104H8.928V12.775h32.15v19.272zM43.906 36.037H6.093l-5.442.273v3.746h48.696V36.31l-5.442-.273zm-13.558 2.47H19.015v-.75h11.333v.75zM12.615 22.152H37.78v-6.166H12.616v6.166zm.5-5.666H37.28v5.166H13.116v-5.166zM12.59 28.7h7.74v-5.564h-7.74V28.7zm.5-5.063h6.74V28.2h-6.74v-4.563zM21.297 28.7h7.738v-5.564h-7.738V28.7zm.5-5.063h6.738V28.2h-6.738v-4.563zM30.064 28.7h7.74v-5.564h-7.74V28.7zm.5-5.063h6.74V28.2h-6.74v-4.563zM12.59 29.965h6.977v.484H12.59zM12.59 30.855h7.74v.484h-7.74zM21.296 29.965h6.976v.484h-6.976zM21.296 30.855h7.74v.484h-7.74zM30.14 29.926h6.976v.484H30.14zM30.14 30.816h7.74v.484h-7.74zM24.15 13.965H12.59v1.406H24.15v-1.405zm-.5.906H13.09v-.405H23.65v.406z"/></g></svg>