<svg xmlns="http://www.w3.org/2000/svg" width="32" height="32" viewBox="0 0 32 32"><path d="M27.522 14.446c.018-.23.035-.455.035-.687 0-4.93-3.996-8.925-8.924-8.925-3.6 0-6.694 2.137-8.104 5.206-.744-.525-1.65-.84-2.633-.84-2.518 0-4.558 2.042-4.558 4.56 0 .377.05.742.136 1.093C1.62 15.866.362 17.833.362 20.095c0 3.296 2.672 5.968 5.968 5.968h19.275c3.296 0 5.968-2.672 5.968-5.968.002-2.626-1.696-4.85-4.05-5.65zm-.347 5.088c-.205 2.16-1.706 4.468-5.304 4.468-2.72 0-5.307-2.89-6.437-4.493-.003-.006-2.11-3.258-4.44-3.174-2.28.082-2.88 1.28-2.984 2.357-.103 1.074.51 2.18 1.492 2.686 1.232.63 2.767.243 4.322-1.105l1.525 1.764c-1.503 1.3-3.105 1.967-4.624 1.968-.796 0-1.57-.184-2.293-.557-1.834-.945-2.938-2.945-2.745-4.977.204-2.16 1.706-4.47 5.304-4.47 3.21 0 5.468 2.923 6.202 3.943 1.217 1.693 3.34 3.725 4.676 3.725 2.282 0 2.88-1.282 2.984-2.357.102-1.073-.512-2.18-1.493-2.685-1.23-.632-2.765-.243-4.32 1.104l-1.526-1.764c2.29-1.98 4.81-2.496 6.916-1.41 1.835.944 2.938 2.944 2.745 4.976z"/></svg>