<svg xmlns="http://www.w3.org/2000/svg" width="100" height="100" viewBox="0 0 100 100"><path d="M49.998 5C25.145 5.002 5 25.148 5 50.002 5 74.852 25.145 95 49.998 95c24.853 0 45-20.148 45.002-44.998-.003-24.854-20.15-45-45.002-45.002zM77.57 28.332c4.39 5.575 7.14 12.48 7.487 20.018-5.08-1.078-9.88-1.603-14.355-1.603h-.033c-3.603 0-6.985.326-10.17.89-.776-1.897-1.56-3.72-2.35-5.466 7.095-3.112 13.906-7.544 19.42-13.838zM50 14.892c8.282 0 15.878 2.896 21.892 7.716-4.602 5.51-10.677 9.5-17.24 12.32-4.61-8.918-9.067-15.297-12.113-19.197 2.41-.534 4.9-.837 7.46-.837zm-15.507 3.66c2.438 2.88 7.317 9.21 12.528 19.095-10.598 3.155-21.27 3.896-27.727 3.894h-.55c-1.087 0-2.022-.018-2.803-.042 2.52-10.08 9.425-18.428 18.554-22.945zm-19.6 31.45c0-.165.006-.333.016-.506 1.002.037 2.288.07 3.835.07h.01c7.057-.047 19.38-.637 31.866-4.58.68 1.49 1.354 3.04 2.02 4.648-8.338 2.79-14.906 7.232-19.764 11.657-4.676 4.26-7.836 8.48-9.682 11.296-5.166-6.116-8.297-13.976-8.3-22.584zm35.108 35.11c-7.813 0-15.014-2.585-20.856-6.92 1.242-2.046 3.904-5.97 8.143-10.028 4.362-4.18 10.383-8.482 18.244-11.043 2.67 7.49 5.09 16.054 6.93 25.692-3.88 1.478-8.072 2.3-12.462 2.3zm19.87-6.235c-1.78-8.717-4.02-16.577-6.48-23.592 2.28-.327 4.675-.512 7.2-.512H70.692c4.19 0 8.79.52 13.78 1.655-1.727 9.283-7.104 17.278-14.602 22.45z"/></svg>