<svg xmlns="http://www.w3.org/2000/svg" width="26" height="26" viewBox="0 0 26 26"><path fill="none" d="M0 0h26v26H0z"/><path fill="#fff" d="M1.918 12.962c0 4.4 2.557 8.205 6.267 10.008L2.88 8.437c-.616 1.382-.962 2.913-.962 4.525zm18.626-.562c0-1.374-.493-2.326-.917-3.066-.563-.917-1.092-1.69-1.092-2.608 0-1.02.775-1.973 1.867-1.973.05 0 .096.006.145.008-1.98-1.812-4.615-2.918-7.51-2.918-3.884 0-7.302 1.993-9.29 5.013.26.008.507.013.716.013 1.163 0 2.963-.142 2.963-.142.6-.035.67.846.07.917 0 0-.602.07-1.27.105l4.048 12.045 2.434-7.298-1.732-4.747c-.6-.035-1.167-.105-1.167-.105-.6-.036-.53-.953.07-.917 0 0 1.835.142 2.927.142 1.163 0 2.964-.142 2.964-.142.6-.035.67.846.072.917 0 0-.604.07-1.272.105L18.588 19.7l1.11-3.705c.564-1.445.846-2.642.846-3.595zm-7.31 1.535L9.895 23.63c.997.292 2.05.452 3.142.452 1.294 0 2.537-.224 3.693-.63-.028-.048-.056-.1-.08-.153l-3.417-9.365zm9.56-6.308c.05.354.076.734.076 1.144 0 1.13-.212 2.397-.846 3.983l-3.396 9.82c3.306-1.928 5.53-5.51 5.53-9.61 0-1.935-.495-3.753-1.363-5.336zM.075 12.962c0 7.147 5.815 12.963 12.962 12.963C20.187 25.925 26 20.11 26 12.962S20.186 0 13.038 0 .075 5.814.075 12.962zm.594 0C.67 6.142 6.216.594 13.036.594s12.37 5.55 12.37 12.368-5.55 12.368-12.37 12.368S.67 19.78.67 12.962z"/></svg>