<svg xmlns="http://www.w3.org/2000/svg" width="32" height="32" viewBox="0 0 32 32"><path d="M17.046.563c-.854-.565-1.968-.552-2.81.034L1.654 9.362c-.67.468-1.07 1.233-1.07 2.052v9.444c0 .84.42 1.623 1.12 2.086l12.79 8.455c.837.552 1.923.552 2.76 0l13.043-8.62c.7-.462 1.122-1.245 1.122-2.085v-9.28c0-.838-.42-1.62-1.12-2.084L17.045.564zm9.742 10.23l-4.82 3.237-4.523-3.288-.027-6.467 9.37 6.518zM14.148 4.28v6.33l-4.634 3.24-4.62-3.1 9.253-6.47zM3.624 13.87l2.99 2.005-2.99 2.093V13.87zm10.6 13.493l-9.33-6.258 4.66-3.258 4.67 3.133v6.383zm-1.772-11.54l3.02-2.114 3.52 2.312-3.12 2.095-3.42-2.295zm5.068 11.54v-6.385l4.464-2.99 4.805 3.158-9.27 6.217zm10.6-9.288l-3.167-2.082 3.168-2.125v4.207z"/></svg>