<?xml version="1.0" encoding="iso-8859-1"?>
<!-- Generator: Adobe Illustrator 16.0.0, SVG Export Plug-In . SVG Version: 6.00 Build 0)  -->
<!DOCTYPE svg PUBLIC "-//W3C//DTD SVG 1.1//EN" "http://www.w3.org/Graphics/SVG/1.1/DTD/svg11.dtd">
<svg version="1.1" id="Capa_1" xmlns="http://www.w3.org/2000/svg" xmlns:xlink="http://www.w3.org/1999/xlink" x="0px" y="0px"
	 width="21.119px" height="31.683px" viewBox="0 0 21.119 31.683" style="enable-background:new 0 0 21.119 31.683;"
	 xml:space="preserve">
<path d="M16.215,25.67H1.73V3.893h14.484v4.691h1.727V2.308C17.941,1.034,16.91,0,15.637,0H2.307C1.031,0,0,1.034,0,2.308v27.069
	c0,1.273,1.031,2.306,2.307,2.306h13.33c1.273,0,2.305-1.033,2.305-2.306V19.212h-1.727V25.67z M14.117,1.444
	c0.326,0,0.59,0.264,0.59,0.59s-0.264,0.59-0.59,0.59s-0.59-0.264-0.59-0.59S13.791,1.444,14.117,1.444z M5.879,1.667h6.186v0.676
	H5.879V1.667z M11.785,29.223H6.156v-1.73h5.629V29.223z"/>
<path d="M7.768,18.296h1.555l-1.555,3.695l4.537-3.695h8.814V9.305H7.768V18.296z"/>
<g>
</g>
<g>
</g>
<g>
</g>
<g>
</g>
<g>
</g>
<g>
</g>
<g>
</g>
<g>
</g>
<g>
</g>
<g>
</g>
<g>
</g>
<g>
</g>
<g>
</g>
<g>
</g>
<g>
</g>
</svg>
