<?xml version="1.0" encoding="utf-8"?>
<!-- Generator: Adobe Illustrator 16.0.0, SVG Export Plug-In . SVG Version: 6.00 Build 0)  -->
<!DOCTYPE svg PUBLIC "-//W3C//DTD SVG 1.1//EN" "http://www.w3.org/Graphics/SVG/1.1/DTD/svg11.dtd">
<svg version="1.1" id="Layer_1" xmlns="http://www.w3.org/2000/svg" xmlns:xlink="http://www.w3.org/1999/xlink" x="0px" y="0px"
	 width="32px" height="32px" viewBox="0 0 32 32" enable-background="new 0 0 32 32" xml:space="preserve">
<path d="M27.522,14.446c0.018-0.229,0.035-0.455,0.035-0.687c0-4.929-3.996-8.924-8.924-8.924c-3.599,0-6.694,2.137-8.104,5.206
	C9.786,9.515,8.879,9.201,7.897,9.201c-2.518,0-4.558,2.041-4.558,4.559c0,0.377,0.051,0.742,0.137,1.093
	c-1.855,1.013-3.114,2.979-3.114,5.242c0,3.296,2.672,5.968,5.968,5.968s16.853,0,19.275,0c3.296,0,5.968-2.672,5.968-5.968
	C31.575,17.469,29.877,15.245,27.522,14.446z M27.175,19.534c-0.205,2.159-1.706,4.468-5.304,4.468c-2.72,0-5.308-2.889-6.438-4.493
	c-0.003-0.005-2.109-3.257-4.44-3.173c-2.28,0.082-2.881,1.281-2.984,2.357c-0.102,1.074,0.512,2.179,1.493,2.686
	c1.232,0.632,2.767,0.244,4.322-1.104l1.525,1.764c-1.502,1.3-3.104,1.968-4.623,1.969c-0.796,0-1.569-0.184-2.293-0.557
	c-1.834-0.946-2.938-2.946-2.745-4.978c0.204-2.16,1.706-4.469,5.304-4.469c3.211,0,5.468,2.922,6.202,3.942
	c1.217,1.693,3.339,3.725,4.676,3.725c2.282,0,2.881-1.283,2.984-2.358c0.102-1.073-0.512-2.179-1.493-2.685
	c-1.231-0.632-2.766-0.243-4.322,1.104l-1.525-1.764c2.291-1.981,4.811-2.496,6.916-1.411
	C26.265,15.502,27.368,17.502,27.175,19.534z"/>
</svg>
