<?xml version="1.0" encoding="utf-8"?>
<!-- Generator: Adobe Illustrator 16.0.0, SVG Export Plug-In . SVG Version: 6.00 Build 0)  -->
<!DOCTYPE svg PUBLIC "-//W3C//DTD SVG 1.1//EN" "http://www.w3.org/Graphics/SVG/1.1/DTD/svg11.dtd">
<svg version="1.1" xmlns="http://www.w3.org/2000/svg" xmlns:xlink="http://www.w3.org/1999/xlink" x="0px" y="0px" width="50px"
	 height="50px" viewBox="0 0 50 50" enable-background="new 0 0 50 50" xml:space="preserve">
<g id="Layer_21">
	<g>
		<path d="M43.912,9.943H6.095v24.936h37.816V9.943z M41.078,32.047H8.928V12.775h32.149V32.047z"/>
		<path d="M43.906,36.037H25.539h-1.077H6.094l-5.442,0.273v3.746h48.696v-3.746L43.906,36.037z M30.348,38.506H19.015v-0.75h11.333
			V38.506z"/>
		<path d="M12.615,22.152h25.166v-6.166H12.615V22.152z M13.115,16.486h24.166v5.166H13.115V16.486z"/>
		<path d="M12.591,28.699h7.739v-5.563h-7.739V28.699z M13.091,23.637h6.739v4.563h-6.739V23.637z"/>
		<path d="M21.297,28.699h7.738v-5.563h-7.738V28.699z M21.797,23.637h6.738v4.563h-6.738V23.637z"/>
		<path d="M30.064,28.699h7.739v-5.563h-7.739V28.699z M30.564,23.637h6.739v4.563h-6.739V23.637z"/>
		<rect x="12.591" y="29.965" width="6.976" height="0.484"/>
		<rect x="12.591" y="30.855" width="7.739" height="0.484"/>
		<rect x="21.296" y="29.965" width="6.976" height="0.484"/>
		<rect x="21.296" y="30.855" width="7.739" height="0.484"/>
		<rect x="30.14" y="29.926" width="6.976" height="0.484"/>
		<rect x="30.14" y="30.816" width="7.739" height="0.484"/>
		<path d="M24.151,13.965H12.588v1.406h11.563V13.965z M23.651,14.871H13.088v-0.406h10.563V14.871z"/>
	</g>
</g>
</svg>
